<svg width="200" height="200" xmlns="http://www.w3.org/2000/svg">
 <title>Web Development Source Code Java Script Front End Copy</title>

 <desc>Created with Sketch.</desc>
 <g>
  <title>Layer 1</title>
  <g stroke="null" id="svg_1" fill-rule="evenodd" fill="none">
   <g stroke="null" id="svg_2" fill-rule="nonzero" fill="#000000">
    <path stroke="null" id="svg_3" d="m65.72353,106.98849l-0.78586,-4.77555c-0.59464,-3.59719 0.35849,-7.35738 2.48209,-9.81764c1.04123,-1.20632 2.32257,-2.04836 3.69443,-2.41995l1.33653,-0.36901c0.45793,-3.73314 1.36115,-7.3302 2.69807,-10.69111l-0.91529,-1.30795c-2.96083,-4.23105 -2.6906,-10.76695 0.59352,-14.57171l2.81918,-3.26611c3.28834,-3.80964 8.368,-3.46194 11.32504,0.76367l0.91529,1.30797c2.73758,-1.35935 5.61642,-2.14413 8.55757,-2.33938l0.4093,-1.67273c0.4348,-1.72148 1.21537,-3.26824 2.25663,-4.47455c2.1236,-2.46026 5.13332,-3.2816 7.84785,-2.14997l3.60905,1.5048c4.20642,1.76196 6.51799,7.58909 5.15231,13.0067l-0.4163,1.65209c1.14,1.18181 2.21217,2.4903 3.18672,3.88294c0.97456,1.39264 1.87386,2.90139 2.66817,4.48371l1.32048,-0.36002c4.32239,-1.18179 8.59249,2.38567 9.51107,7.94734l0.78586,4.77555c0.59464,3.59719 -0.35849,7.35738 -2.48209,9.81764c-1.04123,1.20632 -2.32257,2.04836 -3.69443,2.41995l-1.33653,0.36903c-0.45793,3.73312 -1.36115,7.3302 -2.69807,10.69109l0.91529,1.30795c2.96083,4.23105 2.6906,10.76695 -0.59352,14.57171l-2.81918,3.26611c-3.28834,3.80964 -8.368,3.46196 -11.32504,-0.76367l-0.91529,-1.30795c-2.73758,1.35933 -5.61642,2.14413 -8.55757,2.33936l-0.4093,1.67273c-0.4348,1.72148 -1.21537,3.26824 -2.25663,4.47457c-2.1236,2.46026 -5.13332,3.28158 -7.84785,2.14995l-3.60905,-1.5048c-4.20642,-1.76196 -6.51799,-7.58909 -5.1486,-13.00141l0.41629,-1.65209c-1.14,-1.18181 -2.21216,-2.49032 -3.18672,-3.88294c-0.97454,-1.39264 -1.87386,-2.90139 -2.66815,-4.48371l-1.32048,0.36002c-4.33021,1.18127 -8.59661,-2.3809 -9.51478,-7.95263zm40.42286,-2.83867c3.86044,-4.47244 4.17186,-12.12065 0.696,-17.08766c-3.47595,-4.96714 -9.42008,-5.36783 -13.28041,-0.89552c-3.86043,4.47244 -4.17186,12.12065 -0.696,17.08766c3.47595,4.96714 9.4242,5.36308 13.28041,0.89552zm64.64431,-7.33571l0,-2.46933c-8.77322,-1.05829 -13.50254,-6.43788 -13.50254,-19.31365l0,-19.40184c0,-12.78758 -3.15287,-17.02071 -13.84524,-17.02071l-1.26252,0c-3.9936,0 -7.23106,-4.16556 -7.23106,-9.30405c0,-5.13849 3.23746,-9.30407 7.23106,-9.30407l5.23788,0c18.84873,0 28.10173,7.93711 28.10173,31.48389l0,15.16871c0,11.81749 2.05623,17.28527 10.96653,17.28527l2.14808,0c5.01566,0 9.08165,5.23165 9.08165,11.6852c0,6.45355 -4.06599,11.68519 -9.08165,11.68519l-2.14808,0c-8.9103,0 -10.96653,5.37961 -10.96653,17.28529l0,17.81441c0,23.72315 -9.253,32.1894 -28.10173,32.1894l-5.23788,0c-3.9936,0 -7.23106,-4.16556 -7.23106,-9.30405c0,-5.13851 3.23746,-9.30407 7.23106,-9.30407l1.26252,0c10.69237,0 13.84524,-4.23313 13.84524,-17.02071l0,-21.25384c0,-12.87575 4.72931,-19.84279 13.50254,-20.90106zm-140.86505,0c8.77322,1.05827 13.50254,8.02531 13.50254,20.90106l0,21.25384c0,12.78758 3.15289,17.02071 13.84524,17.02071l1.26253,0c3.9936,0 7.23104,4.16556 7.23104,9.30407c0,5.13849 -3.23745,9.30405 -7.23104,9.30405l-5.23789,0c-18.84871,0 -28.10173,-8.46626 -28.10173,-32.1894l0,-17.81441c0,-11.90568 -2.05622,-17.28529 -10.96653,-17.28529l-2.14806,0c-5.01566,0 -9.08166,-5.23163 -9.08166,-11.68519c0,-6.45355 4.066,-11.6852 9.08166,-11.6852l2.14806,0c8.91031,0 10.96653,-5.46778 10.96653,-17.28527l0,-15.16871c0,-23.54678 9.25301,-31.48389 28.10173,-31.48389l5.23789,0c3.9936,0 7.23104,4.16558 7.23104,9.30407c0,5.13849 -3.23745,9.30405 -7.23104,9.30405l-1.26253,0c-10.69235,0 -13.84524,4.23313 -13.84524,17.02071l0,19.40184c0,12.87577 -4.72931,18.25536 -13.50254,19.31365l0,2.46933z"/>
   </g>
  </g>
 </g>
</svg>