<svg width="64" height="65" xmlns="http://www.w3.org/2000/svg">
 <title>Artboard 24</title>

 <g>
  <title>Layer 1</title>
  <g id="svg_1">
   <rect id="svg_2" height="2" width="33.3125" y="9.46875" x="8.70215"/>
   <rect id="svg_3" height="2" width="27.89258" y="14.85156" x="8.70215"/>
   <rect id="svg_4" height="2" width="22.47168" y="20.23438" x="8.70215"/>
   <rect id="svg_5" height="2" width="19.76172" y="25.61719" x="8.70215"/>
   <g id="svg_6">
    <path id="svg_7" d="m21.36621,54.6377l-4.11035,0a0.99942,0.99942 0 0 1 -1,-1l0,-13.1504a0.99884,0.99884 0 0 1 0.57422,-0.9043l4.11035,-1.93555a0.99891,0.99891 0 0 1 1.42578,0.9043l0,15.08595a0.99942,0.99942 0 0 1 -1,1zm-3.11035,-2l2.11035,0l0,-12.50977l-2.11035,0.99414l0,11.51563z"/>
   </g>
   <g id="svg_8">
    <path id="svg_9" d="m12.59766,54.6377l-4.11133,0a0.99942,0.99942 0 0 1 -1,-1l0,-9.47364a1.00026,1.00026 0 0 1 0.57422,-0.90527l4.11133,-1.93457a0.99986,0.99986 0 0 1 1.42578,0.90527l0,11.40821a0.99942,0.99942 0 0 1 -1,1zm-3.11133,-2l2.11133,0l0,-8.832l-2.11133,0.99316l0,7.83884z"/>
   </g>
   <g id="svg_10">
    <path id="svg_11" d="m30.13574,54.6377l-4.11035,0a0.99942,0.99942 0 0 1 -1,-1l0,-17.11719a0.99884,0.99884 0 0 1 0.57422,-0.9043l4.11039,-1.93555a0.99891,0.99891 0 0 1 1.42578,0.9043l0,19.05274a0.99942,0.99942 0 0 1 -1.00004,1zm-3.11035,-2l2.11035,0l0,-16.47657l-2.11035,0.99414l0,15.48243z"/>
   </g>
   <path id="svg_12" d="m45.7168,62l-40.7168,0a3.00328,3.00328 0 0 1 -3,-3l0,-54a3.00328,3.00328 0 0 1 3,-3l40.7168,0a3.00328,3.00328 0 0 1 3,3l0,13.76465a1,1 0 0 1 -2,0l0,-13.76465a1.00068,1.00068 0 0 0 -1,-1l-40.7168,0a1.00068,1.00068 0 0 0 -1,1l0,54a1.00068,1.00068 0 0 0 1,1l40.7168,0a1.00068,1.00068 0 0 0 1,-1l0,-13.7959a1,1 0 0 1 2,0l0,13.7959a3.00328,3.00328 0 0 1 -3,3z"/>
   <g id="svg_13">
    <g id="svg_14">
     <path id="svg_15" d="m47.7168,46.2041a14.21987,14.21987 0 1 1 14.2832,-14.21972a14.26757,14.26757 0 0 1 -14.2832,14.21972zm0,-26.43945a12.21989,12.21989 0 1 0 12.2832,12.21973a12.265,12.265 0 0 0 -12.2832,-12.21973z"/>
    </g>
    <g id="svg_16">
     <path id="svg_17" d="m47.60254,46.17188l-0.02246,0a2.69445,2.69445 0 0 1 -1.9209,-0.93457c-2.0918,-2.14648 -3.68066,-8.19043 -3.543,-13.47266c0.084,-5.20508 1.87988,-11.10059 4.00293,-13.13281a2.738,2.738 0 0 1 1.9502,-0.86719a2.68426,2.68426 0 0 1 1.875,0.9541c2.01172,2.13379 3.50977,8.27246 3.33984,13.68359c-0.13767,4.95215 -2.15427,13.76954 -5.68161,13.76954zm0.40723,-26.40723a0.95637,0.95637 0 0 0 -0.50781,0.3125c-1.53613,1.46973 -3.30371,6.64844 -3.38574,11.72949c-0.13477,5.1582 1.46,10.47949 2.97559,12.03516c0.25293,0.26074 0.43066,0.33008 0.49512,0.33008l0.01855,0c1.07813,0 3.50586,-5.58008 3.67969,-11.8291c0.167,-5.29688 -1.33984,-10.708 -2.79687,-12.252a0.902,0.902 0 0 0 -0.47461,-0.32617l-0.00392,0.00004z"/>
    </g>
    <g id="svg_18">
     <path id="svg_19" d="m47.7168,46.2041a14.2685,14.2685 0 0 1 -13.09766,-8.53125l-0.61133,-1.40039l27.418,0l-0.61133,1.40039a14.2685,14.2685 0 0 1 -13.09768,8.53125zm-10.543,-7.93164a12.33542,12.33542 0 0 0 21.08594,0l-21.08594,0z"/>
    </g>
    <g id="svg_20">
     <path id="svg_21" d="m61.58691,28.4375l-27.78027,0l0.5,-1.34766a14.28182,14.28182 0 0 1 26.79,0.00488l0.49027,1.34278zm-24.80957,-2l21.85547,0a12.28427,12.28427 0 0 0 -21.85547,0z"/>
    </g>
   </g>
  </g>
  <text id="svg_23" font-family="'Helvetica Neue', Helvetica, Arial-Unicode, Arial, Sans-serif" font-weight="bold" font-size="5px" fill="#000000" y="84" x="0">from the Noun Project</text>
 </g>
</svg>