<svg width="64" height="65" xmlns="http://www.w3.org/2000/svg">
 <title>project-idea-creative-information-plan</title>

 <g>
  <title>Layer 1</title>
  <path id="svg_1" d="m48.29688,26.43213a19.919,19.919 0 0 0 -4.72657,-4.72656a0.9994,0.9994 0 0 0 -1.00781,-0.08936l-3.25684,1.54a17.308,17.308 0 0 0 -1.97461,-0.81885l-1.21191,-3.65234a1.00017,1.00017 0 0 0 -0.94922,-0.68502l-6.33984,0a1.00017,1.00017 0 0 0 -0.94922,0.68506l-1.22656,3.69629l-1.918,0.79492l-3.2988,-1.56006a1.00236,1.00236 0 0 0 -1.00488,0.0874a19.93654,19.93654 0 0 0 -4.72754,4.72559a1.00258,1.00258 0 0 0 -0.08985,1.0083l1.56055,3.29932l-0.79492,1.918l-3.69531,1.22607a1.00016,1.00016 0 0 0 -0.68555,0.94919l0,6.33984a1.00016,1.00016 0 0 0 0.68555,0.94922l3.69531,1.22607l0.79492,1.918l-1.56055,3.29929a1.0017,1.0017 0 0 0 0.08789,1.00537a19.919,19.919 0 0 0 4.72657,4.72656a0.99845,0.99845 0 0 0 1.02343,0.08155l2.99024,-1.48l-0.88672,-1.792l-2.44434,1.2095a17.92825,17.92825 0 0 1 -3.43457,-3.4336l1.4961,-3.16211a1.00146,1.00146 0 0 0 0.01953,-0.81054l-1.13965,-2.75a0.99941,0.99941 0 0 0 -0.60937,-0.56641l-3.44434,-1.14258l0,-4.89648l3.44434,-1.14258a0.99941,0.99941 0 0 0 0.60937,-0.56641l1.13965,-2.75a1.00146,1.00146 0 0 0 -0.01953,-0.81054l-1.49512,-3.16016a17.91935,17.91935 0 0 1 3.44141,-3.44385l3.16211,1.49561a0.99785,0.99785 0 0 0 0.81054,0.02l2.75,-1.14014a1.0011,1.0011 0 0 0 0.56641,-0.60889l1.14258,-3.4448l4.89648,0l1.14258,3.44482a1.00224,1.00224 0 0 0 0.65039,0.63965a15.27023,15.27023 0 0 1 2.58106,1.06983a0.99871,0.99871 0 0 0 0.8955,0.01953l3.16016,-1.49463a17.91984,17.91984 0 0 1 3.44434,3.44092l-1.4961,3.16211a0.99929,0.99929 0 0 0 0.02051,0.895a15.33517,15.33517 0 0 1 1.06934,2.581a0.99981,0.99981 0 0 0 0.63964,0.65088l3.44434,1.14265l0,4.89648l-3.44434,1.14258a0.99981,0.99981 0 0 0 -0.63964,0.65088a15.33517,15.33517 0 0 1 -1.06934,2.581a0.99929,0.99929 0 0 0 -0.02051,0.895l1.49512,3.16016a17.92831,17.92831 0 0 1 -3.43164,3.43652l-2.44629,-1.21038l-0.88672,1.792l2.99024,1.48a0.99906,0.99906 0 0 0 1.0205,-0.07959a19.93654,19.93654 0 0 0 4.72754,-4.72559a1.00258,1.00258 0 0 0 0.08985,-1.0083l-1.54,-3.25635a17.34327,17.34327 0 0 0 0.81836,-1.97558l3.65136,-1.21143a1.00016,1.00016 0 0 0 0.68551,-0.94924l0,-6.33984a1.00016,1.00016 0 0 0 -0.68555,-0.94922l-3.65136,-1.21143a17.30641,17.30641 0 0 0 -0.81836,-1.97558l1.54,-3.25635a1.0017,1.0017 0 0 0 -0.08785,-1.00537z"/>
  <path id="svg_2" d="m27,58l0,3a0.99974,0.99974 0 0 0 1,1l8,0a0.99974,0.99974 0 0 0 1,-1l0,-3a0.99974,0.99974 0 0 0 1,-1l0,-1.49561a17.53938,17.53938 0 0 1 3.65918,-10.39257a11.87984,11.87984 0 0 0 2.34082,-7.11182a12.00121,12.00121 0 1 0 -21.43848,7.40234a17.09114,17.09114 0 0 1 3.43848,10.5708l0,1.02686a0.99974,0.99974 0 0 0 1,1zm8,2l-6,0l0,-2l6,0l0,2zm-10.86621,-15.835a9.95653,9.95653 0 0 1 -2.00977,-7.7627a10.07291,10.07291 0 0 1 8.72071,-8.33789a9.99655,9.99655 0 0 1 9.207,15.8584a19.51751,19.51751 0 0 0 -4.05173,11.58158l0,0.49561l-3,0l0,-8.10107a5,5 0 1 0 -2,0l0,8.10107l-3,0l0,-0.02686a19.102,19.102 0 0 0 -3.86621,-11.80814zm7.86621,1.835a3,3 0 1 1 3,-3a3.00328,3.00328 0 0 1 -3,3z"/>
  <path id="svg_3" d="m24,5.05176l0,4.89648a3.05538,3.05538 0 0 0 3.05176,3.05176l2.41308,0l1.70316,2.55469a0.99995,0.99995 0 0 0 1.66406,0l1.7031,-2.55469l2.41308,0a3.05538,3.05538 0 0 0 3.05176,-3.05176l0,-4.89648a3.05538,3.05538 0 0 0 -3.05176,-3.05176l-9.89648,0a3.05538,3.05538 0 0 0 -3.05176,3.05176zm2,0a1.05277,1.05277 0 0 1 1.05176,-1.05176l9.89648,0a1.05277,1.05277 0 0 1 1.05176,1.05176l0,4.89648a1.05277,1.05277 0 0 1 -1.05176,1.05176l-2.94824,0a1.00028,1.00028 0 0 0 -0.832,0.44531l-1.168,1.75196l-1.168,-1.752a1.00028,1.00028 0 0 0 -0.832,-0.44527l-2.94824,0a1.05277,1.05277 0 0 1 -1.05176,-1.05176l0,-4.89648z"/>
  <path id="svg_4" d="m53,2a9,9 0 1 0 9,9a9.01016,9.01016 0 0 0 -9,-9zm0,16a7,7 0 1 1 7,-7a7.00818,7.00818 0 0 1 -7,7z"/>
  <path id="svg_5" d="m11,20a9,9 0 1 0 -9,-9a9.01016,9.01016 0 0 0 9,9zm0,-16a7,7 0 1 1 -7,7a7.00818,7.00818 0 0 1 7,-7z"/>
  <path id="svg_6" d="m53,10a1,1 0 0 1 0,-2l2,0l0,-2l-2,0a3,3 0 0 0 0,6a1,1 0 0 1 0,2l-2,0l0,2l2,0a3,3 0 0 0 0,-6z"/>
  <rect id="svg_7" height="2" width="4" y="6" x="28"/>
  <rect id="svg_8" height="2" width="2" y="6" x="34"/>
  <rect id="svg_9" height="3" width="2" y="11" x="7"/>
  <rect id="svg_10" height="5" width="2" y="9" x="10"/>
  <rect id="svg_11" height="7" width="2" y="7" x="13"/>
  <rect id="svg_12" height="2" width="2" y="21" x="58"/>
  <rect id="svg_13" height="2" width="2" y="25" x="58"/>
  <rect id="svg_14" height="2" width="2" y="29" x="58"/>
  <rect id="svg_15" height="2" width="2" y="33" x="58"/>
  <rect id="svg_16" height="2" width="2" y="37" x="58"/>
  <rect id="svg_17" height="2" width="2" y="37" x="54"/>
  <rect id="svg_18" height="2" width="2" y="21" x="4"/>
  <rect id="svg_19" height="2" width="2" y="25" x="4"/>
  <rect id="svg_20" height="2" width="2" y="29" x="4"/>
  <rect id="svg_21" height="2" width="2" y="33" x="4"/>
  <rect id="svg_22" height="2" width="2" y="37" x="4"/>
  <rect id="svg_23" height="2" width="2" y="37" x="8"/>
  <rect id="svg_24" height="2" width="2" y="56" x="4"/>
  <rect id="svg_25" height="2" width="2" y="60" x="4"/>
  <rect id="svg_26" height="2" width="2" y="58" x="6"/>
  <rect id="svg_27" height="2" width="2" y="58" x="2"/>
  <rect id="svg_28" height="2" width="2" y="56" x="58"/>
  <rect id="svg_29" height="2" width="2" y="60" x="58"/>
  <rect id="svg_30" height="2" width="2" y="58" x="60"/>
  <rect id="svg_31" height="2" width="2" y="58" x="56"/>
  <rect id="svg_32" height="2" width="2" y="42" x="31"/>
  <text id="svg_34" font-family="'Helvetica Neue', Helvetica, Arial-Unicode, Arial, Sans-serif" font-weight="bold" font-size="5px" fill="#000000" y="84" x="0">from the Noun Project</text>
 </g>
</svg>