<svg width="64" height="65" xmlns="http://www.w3.org/2000/svg">

 <g>
  <title>Layer 1</title>
  <path id="svg_1" d="m20.5,45l-9,0c-0.276,0 -0.5,-0.224 -0.5,-0.5l0,-6c0,-0.276 0.224,-0.5 0.5,-0.5s0.5,0.224 0.5,0.5l0,5.5l8.5,0c0.276,0 0.5,0.224 0.5,0.5s-0.224,0.5 -0.5,0.5z"/>
  <path id="svg_2" d="m59.5,45l-26,0c-0.276,0 -0.5,-0.224 -0.5,-0.5s0.224,-0.5 0.5,-0.5l25.5,0l0,-25l-24.5,0c-0.276,0 -0.5,-0.224 -0.5,-0.5s0.224,-0.5 0.5,-0.5l25,0c0.276,0 0.5,0.224 0.5,0.5l0,26c0,0.276 -0.224,0.5 -0.5,0.5z"/>
  <path id="svg_3" d="m27.5,61c-0.035,0 -0.072,-0.004 -0.108,-0.012c-0.27,-0.06 -0.439,-0.327 -0.38,-0.597l2,-9c0.06,-0.269 0.324,-0.437 0.597,-0.38c0.27,0.06 0.439,0.327 0.38,0.597l-2,9c-0.052,0.233 -0.26,0.392 -0.489,0.392z"/>
  <path id="svg_4" d="m43.5,61c-0.229,0 -0.437,-0.159 -0.488,-0.392l-2,-9c-0.06,-0.27 0.11,-0.537 0.38,-0.597c0.273,-0.057 0.537,0.111 0.597,0.38l2,9c0.06,0.27 -0.11,0.537 -0.38,0.597c-0.037,0.008 -0.074,0.012 -0.109,0.012z"/>
  <path id="svg_5" d="m49.5,52l-38.276,0c-1.778,0 -3.224,-1.466 -3.224,-3.269l0,-10.231c0,-0.276 0.224,-0.5 0.5,-0.5s0.5,0.224 0.5,0.5l0,10.231c0,1.251 0.997,2.269 2.224,2.269l38.276,0c0.276,0 0.5,0.224 0.5,0.5s-0.224,0.5 -0.5,0.5z"/>
  <path id="svg_6" d="m59.776,52l-2.276,0c-0.276,0 -0.5,-0.224 -0.5,-0.5s0.224,-0.5 0.5,-0.5l2.276,0c1.227,0 2.224,-1.018 2.224,-2.269l0,-30.462c0,-1.251 -0.997,-2.269 -2.224,-2.269l-25.276,0c-0.276,0 -0.5,-0.224 -0.5,-0.5s0.224,-0.5 0.5,-0.5l25.276,0c1.778,0 3.224,1.466 3.224,3.269l0,30.462c0,1.803 -1.446,3.269 -3.224,3.269z"/>
  <path id="svg_7" d="m55,63l-3,0c-1.654,0 -3,-1.346 -3,-3l0,-9c0,-1.654 1.346,-3 3,-3l3,0c1.654,0 3,1.346 3,3l0,9c0,1.654 -1.346,3 -3,3zm-3,-14c-1.103,0 -2,0.897 -2,2l0,9c0,1.103 0.897,2 2,2l3,0c1.103,0 2,-0.897 2,-2l0,-9c0,-1.103 -0.897,-2 -2,-2l-3,0z"/>
  <path id="svg_8" d="m53.5,54c-0.276,0 -0.5,-0.224 -0.5,-0.5l0,-2c0,-0.276 0.224,-0.5 0.5,-0.5s0.5,0.224 0.5,0.5l0,2c0,0.276 -0.224,0.5 -0.5,0.5z"/>
  <path id="svg_9" d="m45.5,63l-20,0c-0.827,0 -1.5,-0.673 -1.5,-1.5s0.673,-1.5 1.5,-1.5l20,0c0.827,0 1.5,0.673 1.5,1.5s-0.673,1.5 -1.5,1.5zm-20,-2c-0.275,0 -0.5,0.224 -0.5,0.5s0.225,0.5 0.5,0.5l20,0c0.275,0 0.5,-0.224 0.5,-0.5s-0.225,-0.5 -0.5,-0.5l-20,0z"/>
  <path id="svg_10" d="m34.5,39l-33,0c-0.276,0 -0.5,-0.224 -0.5,-0.5l0,-37c0,-0.276 0.224,-0.5 0.5,-0.5l33,0c0.276,0 0.5,0.224 0.5,0.5l0,37c0,0.276 -0.224,0.5 -0.5,0.5zm-32.5,-1l32,0l0,-36l-32,0l0,36z"/>
  <path id="svg_11" d="m57.5,13l-16,0c-0.276,0 -0.5,-0.224 -0.5,-0.5l0,-9c0,-0.276 0.224,-0.5 0.5,-0.5l16,0c0.276,0 0.5,0.224 0.5,0.5l0,9c0,0.276 -0.224,0.5 -0.5,0.5zm-15.5,-1l15,0l0,-8l-15,0l0,8z"/>
  <path id="svg_12" d="m56.5,26l-19,0c-0.276,0 -0.5,-0.224 -0.5,-0.5l0,-4c0,-0.276 0.224,-0.5 0.5,-0.5l19,0c0.276,0 0.5,0.224 0.5,0.5l0,4c0,0.276 -0.224,0.5 -0.5,0.5zm-18.5,-1l18,0l0,-3l-18,0l0,3z"/>
  <path id="svg_13" d="m43.5,36l-6,0c-0.276,0 -0.5,-0.224 -0.5,-0.5l0,-4c0,-0.276 0.224,-0.5 0.5,-0.5l6,0c0.276,0 0.5,0.224 0.5,0.5l0,4c0,0.276 -0.224,0.5 -0.5,0.5zm-5.5,-1l5,0l0,-3l-5,0l0,3z"/>
  <path id="svg_14" d="m56.5,36l-10,0c-0.276,0 -0.5,-0.224 -0.5,-0.5l0,-4c0,-0.276 0.224,-0.5 0.5,-0.5l10,0c0.276,0 0.5,0.224 0.5,0.5l0,4c0,0.276 -0.224,0.5 -0.5,0.5zm-9.5,-1l9,0l0,-3l-9,0l0,3z"/>
  <path id="svg_15" d="m56.5,42l-42,0c-0.276,0 -0.5,-0.224 -0.5,-0.5s0.224,-0.5 0.5,-0.5l42,0c0.276,0 0.5,0.224 0.5,0.5s-0.224,0.5 -0.5,0.5z"/>
  <path id="svg_16" d="m56.5,39l-19,0c-0.276,0 -0.5,-0.224 -0.5,-0.5s0.224,-0.5 0.5,-0.5l19,0c0.276,0 0.5,0.224 0.5,0.5s-0.224,0.5 -0.5,0.5z"/>
  <path id="svg_17" d="m56.5,29l-19,0c-0.276,0 -0.5,-0.224 -0.5,-0.5s0.224,-0.5 0.5,-0.5l19,0c0.276,0 0.5,0.224 0.5,0.5s-0.224,0.5 -0.5,0.5z"/>
  <path id="svg_18" d="m7.5,10c-1.379,0 -2.5,-1.122 -2.5,-2.5s1.121,-2.5 2.5,-2.5s2.5,1.122 2.5,2.5s-1.121,2.5 -2.5,2.5zm0,-4c-0.827,0 -1.5,0.673 -1.5,1.5s0.673,1.5 1.5,1.5s1.5,-0.673 1.5,-1.5s-0.673,-1.5 -1.5,-1.5z"/>
  <path id="svg_19" d="m9.5,13l-4,0c-0.276,0 -0.5,-0.224 -0.5,-0.5s0.224,-0.5 0.5,-0.5l4,0c0.276,0 0.5,0.224 0.5,0.5s-0.224,0.5 -0.5,0.5z"/>
  <path id="svg_20" d="m20.5,13l-5,0c-0.276,0 -0.5,-0.224 -0.5,-0.5s0.224,-0.5 0.5,-0.5l5,0c0.276,0 0.5,0.224 0.5,0.5s-0.224,0.5 -0.5,0.5z"/>
  <path id="svg_21" d="m28.5,10c-1.379,0 -2.5,-1.122 -2.5,-2.5s1.121,-2.5 2.5,-2.5s2.5,1.122 2.5,2.5s-1.121,2.5 -2.5,2.5zm0,-4c-0.827,0 -1.5,0.673 -1.5,1.5s0.673,1.5 1.5,1.5s1.5,-0.673 1.5,-1.5s-0.673,-1.5 -1.5,-1.5z"/>
  <path id="svg_22" d="m30.5,13l-4,0c-0.276,0 -0.5,-0.224 -0.5,-0.5s0.224,-0.5 0.5,-0.5l4,0c0.276,0 0.5,0.224 0.5,0.5s-0.224,0.5 -0.5,0.5z"/>
  <path id="svg_23" d="m20.5,10l-5,0c-0.276,0 -0.5,-0.224 -0.5,-0.5l0,-4c0,-0.276 0.224,-0.5 0.5,-0.5l5,0c0.276,0 0.5,0.224 0.5,0.5l0,4c0,0.276 -0.224,0.5 -0.5,0.5zm-4.5,-1l4,0l0,-3l-4,0l0,3z"/>
  <path id="svg_24" d="m30.5,23l-25,0c-0.276,0 -0.5,-0.224 -0.5,-0.5s0.224,-0.5 0.5,-0.5l25,0c0.276,0 0.5,0.224 0.5,0.5s-0.224,0.5 -0.5,0.5z"/>
  <path id="svg_25" d="m30.5,35l-25,0c-0.276,0 -0.5,-0.224 -0.5,-0.5s0.224,-0.5 0.5,-0.5l25,0c0.276,0 0.5,0.224 0.5,0.5s-0.224,0.5 -0.5,0.5z"/>
  <path id="svg_26" d="m52.5,7l-2,0c-0.276,0 -0.5,-0.224 -0.5,-0.5s0.224,-0.5 0.5,-0.5l2,0c0.276,0 0.5,0.224 0.5,0.5s-0.224,0.5 -0.5,0.5z"/>
  <path id="svg_27" d="m54.5,10l-4,0c-0.276,0 -0.5,-0.224 -0.5,-0.5s0.224,-0.5 0.5,-0.5l4,0c0.276,0 0.5,0.224 0.5,0.5s-0.224,0.5 -0.5,0.5z"/>
  <path id="svg_28" d="m48.5,10l-4,0c-0.276,0 -0.5,-0.224 -0.5,-0.5l0,-3c0,-0.276 0.224,-0.5 0.5,-0.5l4,0c0.276,0 0.5,0.224 0.5,0.5l0,3c0,0.276 -0.224,0.5 -0.5,0.5zm-3.5,-1l3,0l0,-2l-3,0l0,2z"/>
  <path id="svg_29" d="m28.5,45l-5,0c-0.276,0 -0.5,-0.224 -0.5,-0.5s0.224,-0.5 0.5,-0.5l5,0c0.276,0 0.5,0.224 0.5,0.5s-0.224,0.5 -0.5,0.5z"/>
 </g>
</svg>