<svg width="64" height="65" xmlns="http://www.w3.org/2000/svg">

 <g>
  <title>Layer 1</title>
  <path id="svg_1" d="m32,9c0.552,0 1,0.449 1,1l2,0c0,-1.302 -0.839,-2.402 -2,-2.816l0,-1.184l-2,0l0,1.184c-1.161,0.414 -2,1.514 -2,2.816c0,0.265 0.105,0.52 0.293,0.707l3.644,3.644c-0.143,0.378 -0.509,0.649 -0.937,0.649c-0.552,0 -1,-0.449 -1,-1l-2,0c0,1.302 0.839,2.402 2,2.816l0,1.184l2,0l0,-1.184c1.161,-0.414 2,-1.514 2,-2.816c0,-0.265 -0.105,-0.52 -0.293,-0.707l-3.644,-3.644c0.143,-0.378 0.509,-0.649 0.937,-0.649z"/>
  <path id="svg_2" d="m32,2c-5.514,0 -10,4.486 -10,10s4.486,10 10,10s10,-4.486 10,-10s-4.486,-10 -10,-10zm0,18c-4.411,0 -8,-3.589 -8,-8s3.589,-8 8,-8s8,3.589 8,8s-3.589,8 -8,8z"/>
  <path id="svg_3" d="m16,39l0,17l-4,0c-0.553,0 -1,0.448 -1,1c0,2.757 2.243,5 5,5l32,0c2.757,0 5,-2.243 5,-5c0,-0.552 -0.447,-1 -1,-1l-4,0l0,-17c0,-1.654 -1.346,-3 -3,-3l-26,0c-1.654,0 -3,1.346 -3,3zm32,21l-32,0c-1.304,0 -2.416,-0.836 -2.829,-2l3.829,0l30,0l3.829,0c-0.413,1.164 -1.525,2 -2.829,2zm-2,-21l0,17l-28,0l0,-17c0,-0.551 0.448,-1 1,-1l26,0c0.552,0 1,0.449 1,1z"/>
  <path id="svg_4" d="m6.024,14.253l0.484,3.871l0.5,4c0.062,0.501 0.488,0.876 0.992,0.876l0,2l2,0l0,-2l3,0l3,0l0,2l2,0l0,-2c0.504,0 0.93,-0.375 0.992,-0.876l0.5,-4l0.5,-4c0.036,-0.285 -0.053,-0.571 -0.242,-0.786c-0.19,-0.215 -0.463,-0.338 -0.75,-0.338l-6,0l-5.323,0l-1.748,-4.372c-0.153,-0.379 -0.52,-0.628 -0.929,-0.628l-3,0l0,2l2.323,0l1.701,4.253zm2.859,6.747l-0.25,-2l3.367,0l0,2l-3.117,0zm5.117,-2l3.367,0l-0.25,2l-3.117,0l0,-2zm3.617,-2l-3.617,0l0,-2l3.867,0l-0.25,2zm-5.617,-2l0,2l-3.617,0l-0.25,-2l3.867,0z"/>
  <path id="svg_5" d="m53,7c-1.654,0 -3,1.346 -3,3l0,2l-4,0c-0.281,0 -0.549,0.118 -0.738,0.326s-0.283,0.485 -0.258,0.765l1,11c0.047,0.514 0.478,0.909 0.996,0.909l12,0c0.518,0 0.949,-0.395 0.996,-0.91l1,-11c0.025,-0.28 -0.068,-0.557 -0.258,-0.765s-0.457,-0.325 -0.738,-0.325l-4,0l0,-2c0,-1.654 -1.346,-3 -3,-3zm-1,3c0,-0.551 0.448,-1 1,-1s1,0.449 1,1l0,2l-2,0l0,-2zm6.905,4l-0.818,9l-10.174,0l-0.818,-9l2.905,0l0,2l2,0l0,-2l2,0l0,2l2,0l0,-2l2.905,0z"/>
  <path id="svg_6" d="m25.93,45.391c0.75,-1.344 2.55,-3.569 6.016,-3.379c3.846,0.211 5.996,3.21 6.229,3.551l1.652,-1.126c-0.472,-0.693 -3.066,-4.164 -7.771,-4.422c-3.32,-0.175 -6.205,1.42 -7.902,4.456l1.674,1.094c0.017,-0.029 0.053,-0.087 0.102,-0.174z"/>
  <path id="svg_7" d="m32,48c-1.672,0 -2.627,1.168 -2.802,1.402l1.604,1.195c0.018,-0.024 0.455,-0.597 1.198,-0.597c0.03,0 0.755,0.007 1.2,0.6l1.6,-1.2c-1,-1.333 -2.508,-1.4 -2.8,-1.4z"/>
  <path id="svg_8" d="m32,44c-2.855,0 -4.499,1.999 -4.8,2.4l1.6,1.2c0.123,-0.164 1.256,-1.6 3.2,-1.6c0.205,0 2.034,0.045 3.2,1.6l1.6,-1.2c-1.713,-2.284 -4.299,-2.4 -4.8,-2.4z"/>
  <rect id="svg_9" height="2" width="2" y="52" x="31"/>
  <path id="svg_10" d="m35,34l2,0c0,-3.86 3.141,-7 7,-7l0,-2c-4.963,0 -9,4.038 -9,9z"/>
  <path id="svg_11" d="m20,27c3.859,0 7,3.14 7,7l2,0c0,-4.962 -4.037,-9 -9,-9l0,2z"/>
  <rect id="svg_12" height="10" width="2" y="24" x="31"/>
  <path id="svg_13" d="m57,29c-2.757,0 -5,2.243 -5,5s2.243,5 5,5s5,-2.243 5,-5s-2.243,-5 -5,-5zm0,8c-1.654,0 -3,-1.346 -3,-3s1.346,-3 3,-3s3,1.346 3,3s-1.346,3 -3,3z"/>
  <path id="svg_14" d="m60,46c0,-1.654 -1.346,-3 -3,-3s-3,1.346 -3,3s1.346,3 3,3s3,-1.346 3,-3zm-4,0c0,-0.551 0.448,-1 1,-1s1,0.449 1,1s-0.448,1 -1,1s-1,-0.449 -1,-1z"/>
  <path id="svg_15" d="m7,39c2.757,0 5,-2.243 5,-5s-2.243,-5 -5,-5s-5,2.243 -5,5s2.243,5 5,5zm0,-8c1.654,0 3,1.346 3,3s-1.346,3 -3,3s-3,-1.346 -3,-3s1.346,-3 3,-3z"/>
  <path id="svg_16" d="m10,46c0,-1.654 -1.346,-3 -3,-3s-3,1.346 -3,3s1.346,3 3,3s3,-1.346 3,-3zm-3,1c-0.552,0 -1,-0.449 -1,-1s0.448,-1 1,-1s1,0.449 1,1s-0.448,1 -1,1z"/>
  <text id="svg_18" font-family="'Helvetica Neue', Helvetica, Arial-Unicode, Arial, Sans-serif" font-weight="bold" font-size="5px" fill="#000000" y="84" x="0">from the Noun Project</text>
 </g>
</svg>