<svg width="49" height="50" xmlns="http://www.w3.org/2000/svg">

 <g>
  <title>Layer 1</title>
  <g id="svg_1">
   <path id="svg_2" d="m43.5,0.5l-38,0c-2.8,0 -5,2.2 -5,5l0,38c0,2.8 2.2,5 5,5l38,0c2.8,0 5,-2.2 5,-5l0,-38c0,-2.8 -2.2,-5 -5,-5zm3,43c0,1.7 -1.3,3 -3,3l-38,0c-1.7,0 -3,-1.3 -3,-3l0,-29l34.4,0c0.6,0 1,-0.4 1,-1c0,-0.6 -0.4,-1 -1,-1l-34.4,0l0,-7c0,-1.7 1.3,-3 3,-3l38,0c1.7,0 3,1.3 3,3l0,38z" fill="#000000"/>
   <path id="svg_3" d="m7.8,4.6c-1.6,0 -2.8,1.3 -2.8,2.9c0,1.6 1.3,2.9 2.9,2.9s2.9,-1.3 2.9,-2.9c-0.1,-1.6 -1.4,-2.9 -3,-2.9zm0,3.7c-0.5,0 -0.8,-0.3 -0.8,-0.8c0,-0.5 0.3,-0.9 0.8,-0.9c0.5,0 0.9,0.4 0.9,0.9c0,0.5 -0.4,0.8 -0.9,0.8z" fill="#000000"/>
   <path id="svg_4" d="m14.5,4.6c-1.6,0 -2.9,1.3 -2.9,2.9c0,1.6 1.3,2.9 2.9,2.9s2.9,-1.3 2.9,-2.9c-0.1,-1.6 -1.4,-2.9 -2.9,-2.9zm0,3.7c-0.5,0 -0.9,-0.4 -0.9,-0.9c0,-0.5 0.4,-0.9 0.9,-0.9c0.5,0 0.9,0.4 0.9,0.9c-0.1,0.6 -0.5,0.9 -0.9,0.9z" fill="#000000"/>
   <path id="svg_5" d="m21.1,4.6c-1.6,0 -2.9,1.3 -2.9,2.9c0,1.6 1.3,2.9 2.9,2.9c1.6,0 2.9,-1.3 2.9,-2.9c0,-1.6 -1.3,-2.9 -2.9,-2.9zm0,3.7c-0.5,0 -0.9,-0.4 -0.9,-0.9c0,-0.5 0.4,-0.9 0.9,-0.9s0.9,0.5 0.9,1c0,0.5 -0.4,0.8 -0.9,0.8z" fill="#000000"/>
   <path id="svg_6" d="m21.1,30.5c2.2,0 4.1,-1.8 4.1,-4.1s-1.8,-4.1 -4.1,-4.1s-4.1,1.8 -4.1,4.1s1.8,4.1 4.1,4.1zm0,-6.2c1.1,0 2.1,0.9 2.1,2.1c0,1.1 -0.9,2.1 -2.1,2.1c-1.1,0 -2.1,-0.9 -2.1,-2.1c0,-1.2 0.9,-2.1 2.1,-2.1z" fill="#000000"/>
   <path id="svg_7" d="m40.2,14.5l2.8,0c0.6,0 1,-0.4 1,-1c0,-0.6 -0.4,-1 -1,-1l-2.7,0c-0.6,0 -1,0.4 -1,1c-0.1,0.5 0.4,1 0.9,1z" fill="#000000"/>
   <path id="svg_8" d="m43,17.6l-37,0c-0.6,0 -1,0.4 -1,1l0,24.4c0,0.3 0.1,0.5 0.3,0.7c0.2,0.2 0.4,0.3 0.7,0.3l10.4,0l0,0l26.6,0c0.6,0 1,-0.4 1,-1l0,-6.2l0,-18.2c0,-0.6 -0.4,-1 -1,-1zm-1,2l0,14.9l-8.6,-8.6c-0.4,-0.4 -1,-0.4 -1.4,0l-11,11l-6.8,-6.8c-0.4,-0.4 -1,-0.4 -1.4,0l-5.8,5.9l0,-16.4l35,0zm-35,22.4l0,-3.2l6.6,-6.6l6.1,6.1l-3.8,3.7l-8.9,0zm35,0l-23.2,0l3,-3c0,0 0,0 0,0l11,-11l9.3,9.3l0,4.7l-0.1,0z" fill="#000000"/>
  </g>
  <text id="svg_10" font-family="'Helvetica Neue', Helvetica, Arial-Unicode, Arial, Sans-serif" font-weight="bold" font-size="5px" fill="#000000" y="69" x="0">from the Noun Project</text>
 </g>
</svg>